# Blender v2.90.1 OBJ File: ''
# www.blender.org
mtllib bin_clothes.mtl
o Cube
v 0.122675 0.800000 -0.140239
v 0.084143 0.800000 -0.204459
v 0.117160 0.800000 -0.174543
v 0.104726 0.800000 -0.195267
v 0.082030 0.000000 -0.233728
v 0.140237 0.000000 -0.136716
v 0.111133 0.000000 -0.220731
v 0.132439 0.000000 -0.185222
v 0.084143 0.800000 0.204459
v 0.122675 0.800000 0.140239
v 0.104726 0.800000 0.195267
v 0.117160 0.800000 0.174543
v 0.140237 0.000000 0.136716
v 0.082030 0.000000 0.233728
v 0.132439 0.000000 0.185222
v 0.111133 0.000000 0.220731
v -0.084143 0.800000 -0.204459
v -0.122675 0.800000 -0.140239
v -0.104726 0.800000 -0.195267
v -0.117160 0.800000 -0.174543
v -0.140237 0.000000 -0.136716
v -0.082030 0.000000 -0.233728
v -0.132439 0.000000 -0.185222
v -0.111133 0.000000 -0.220731
v -0.122675 0.800000 0.140239
v -0.084143 0.800000 0.204459
v -0.117160 0.800000 0.174543
v -0.104726 0.800000 0.195267
v -0.082030 0.000000 0.233728
v -0.140237 0.000000 0.136716
v -0.111133 0.000000 0.220731
v -0.132439 0.000000 0.185222
v 0.141659 0.800000 -0.198117
v 0.150000 0.800000 -0.146234
v 0.118870 0.800000 -0.236098
v 0.087741 0.800000 -0.250000
v -0.087741 0.800000 0.250000
v -0.118870 0.800000 0.236098
v -0.141659 0.800000 0.198117
v -0.150000 0.800000 0.146234
v 0.118870 0.800000 0.236098
v 0.087741 0.800000 0.250000
v 0.141659 0.800000 0.198117
v 0.150000 0.800000 0.146234
v -0.118870 0.800000 -0.236098
v -0.087741 0.800000 -0.250000
v -0.141659 0.800000 -0.198117
v -0.150000 0.800000 -0.146234
v 0.117160 0.048894 -0.174543
v 0.122675 0.048894 -0.140239
v 0.104726 0.048894 -0.195267
v 0.084143 0.048894 -0.204459
v -0.084143 0.048894 0.204459
v -0.104726 0.048894 0.195267
v -0.117160 0.048894 0.174543
v -0.122675 0.048894 0.140239
v 0.104726 0.048894 0.195267
v 0.084143 0.048894 0.204459
v 0.117160 0.048894 0.174543
v 0.122675 0.048894 0.140239
v -0.104726 0.048894 -0.195267
v -0.084143 0.048894 -0.204459
v -0.117160 0.048894 -0.174543
v -0.122675 0.048894 -0.140239
vt 0.125000 0.551883
vt 0.293984 0.324686
vt 0.300314 0.352945
vt 0.176883 0.500000
vt 0.323117 0.500000
vt 0.366353 0.485023
vt 0.372683 0.525941
vt 0.375000 0.551883
vt 0.375000 0.698117
vt 0.372683 0.724059
vt 0.366353 0.764977
vt 0.323117 0.750000
vt 0.176883 0.750000
vt 0.150941 0.743049
vt 0.131951 0.724059
vt 0.125000 0.698117
vt 0.375000 0.051883
vt 0.625000 0.051883
vt 0.625000 0.198117
vt 0.375000 0.198117
vt 0.375000 0.801883
vt 0.625000 0.801883
vt 0.625000 0.948117
vt 0.375000 0.948117
vt 0.850691 0.693546
vt 0.846421 0.711052
vt 0.846421 0.711052
vt 0.850691 0.693546
vt 0.625000 0.551883
vt 0.625000 0.698117
vt 0.627317 0.525941
vt 0.633647 0.485023
vt 0.375000 0.448117
vt 0.625000 0.448117
vt 0.625000 0.974059
vt 0.375000 0.974059
vt 0.375000 0.000000
vt 0.625000 0.000000
vt 0.625000 0.025941
vt 0.375000 0.025941
vt 0.633647 0.764977
vt 0.627317 0.724059
vt 0.625000 0.301883
vt 0.375000 0.301883
vt 0.699686 0.352945
vt 0.706016 0.324686
vt 0.646185 0.532167
vt 0.644235 0.551892
vt 0.654819 0.518837
vt 0.674709 0.517052
vt 0.676883 0.500000
vt 0.818854 0.725999
vt 0.836125 0.721494
vt 0.849059 0.743049
vt 0.823117 0.750000
vt 0.868049 0.724059
vt 0.875000 0.698117
vt 0.655206 0.729072
vt 0.675304 0.730373
vt 0.676883 0.750000
vt 0.646501 0.715824
vt 0.644532 0.695876
vt 0.754235 0.434911
vt 0.778202 0.476857
vt 0.823117 0.500000
vt 0.762939 0.439073
vt 0.808969 0.503900
vt 0.875000 0.551883
vt 0.644235 0.551892
vt 0.646185 0.532167
vt 0.654819 0.518837
vt 0.674709 0.517052
vt 0.778202 0.476857
vt 0.754235 0.434911
vt 0.762939 0.439073
vt 0.808969 0.503900
vt 0.836125 0.721494
vt 0.818854 0.725999
vt 0.675304 0.730373
vt 0.655206 0.729072
vt 0.646501 0.715824
vt 0.644532 0.695876
vn 0.0000 -1.0000 0.0000
vn -0.9999 -0.0122 0.0000
vn 0.0000 -0.0203 0.9998
vn 0.9873 -0.0000 -0.1587
vn 0.9999 -0.0122 0.0000
vn 0.9872 -0.0139 -0.1587
vn 0.8574 -0.0182 -0.5144
vn 0.4077 -0.0215 -0.9129
vn -0.4077 -0.0215 0.9129
vn -0.8574 -0.0182 0.5144
vn -0.9872 -0.0139 0.1587
vn 0.4077 -0.0215 0.9129
vn 0.8574 -0.0182 0.5144
vn 0.9872 -0.0139 0.1587
vn -0.4077 -0.0215 -0.9129
vn -0.8574 -0.0182 -0.5144
vn -0.9872 -0.0139 -0.1587
vn 0.0000 -0.0203 -0.9998
vn 0.0000 1.0000 -0.0000
vn -1.0000 0.0000 0.0000
vn -0.4078 0.0000 -0.9131
vn 1.0000 -0.0000 0.0000
vn -0.8575 0.0000 -0.5145
vn -0.9873 0.0000 0.1587
vn 0.0000 0.0000 -1.0000
vn -0.9873 0.0000 -0.1587
vn -0.8575 0.0000 0.5145
vn 0.4078 -0.0000 0.9131
vn -0.4078 0.0000 0.9131
vn 0.8575 -0.0000 0.5145
vn 0.4078 -0.0000 -0.9131
vn 0.9873 -0.0000 0.1587
vn 0.8575 -0.0000 -0.5145
vn 0.0000 0.0000 1.0000
usemtl Material
s off
f 21/1/1 23/2/1 24/3/1 22/4/1 5/5/1 7/6/1 8/7/1 6/8/1 13/9/1 15/10/1 16/11/1 14/12/1 29/13/1 31/14/1 32/15/1 30/16/1
f 30/17/2 40/18/2 48/19/2 21/20/2
f 14/21/3 42/22/3 37/23/3 29/24/3
f 25/25/4 27/26/4 55/27/4 56/28/4
f 6/8/5 34/29/5 44/30/5 13/9/5
f 34/29/6 6/8/6 8/7/6 33/31/6
f 33/31/7 8/7/7 7/6/7 35/32/7
f 35/32/8 7/6/8 5/33/8 36/34/8
f 29/24/9 37/23/9 38/35/9 31/36/9
f 31/37/10 38/38/10 39/39/10 32/40/10
f 32/40/11 39/39/11 40/18/11 30/17/11
f 42/22/12 14/21/12 16/11/12 41/41/12
f 41/41/13 16/11/13 15/10/13 43/42/13
f 43/42/14 15/10/14 13/9/14 44/30/14
f 46/43/15 22/44/15 24/3/15 45/45/15
f 45/45/16 24/3/16 23/2/16 47/46/16
f 47/46/17 23/2/17 21/20/17 48/19/17
f 22/44/18 46/43/18 36/34/18 5/33/18
f 3/47/19 1/48/19 34/29/19 33/31/19
f 4/49/19 3/47/19 33/31/19 35/32/19
f 2/50/19 4/49/19 35/32/19 36/51/19
f 26/52/19 28/53/19 38/54/19 37/55/19
f 28/53/19 27/26/19 39/56/19 38/54/19
f 27/26/19 25/25/19 40/57/19 39/56/19
f 11/58/19 9/59/19 42/60/19 41/41/19
f 12/61/19 11/58/19 41/41/19 43/42/19
f 10/62/19 12/61/19 43/42/19 44/30/19
f 19/63/19 17/64/19 46/65/19 45/45/19
f 20/66/19 19/63/19 45/45/19 47/46/19
f 18/67/19 20/66/19 47/46/19 48/68/19
f 17/64/19 2/50/19 36/51/19 46/65/19
f 1/48/19 10/62/19 44/30/19 34/29/19
f 25/25/19 18/67/19 48/68/19 40/57/19
f 9/59/19 26/52/19 37/55/19 42/60/19
f 50/69/19 49/70/19 51/71/19 52/72/19 62/73/19 61/74/19 63/75/19 64/76/19 56/28/19 55/27/19 54/77/19 53/78/19 58/79/19 57/80/19 59/81/19 60/82/19
f 10/62/20 1/48/20 50/69/20 60/82/20
f 9/59/21 11/58/21 57/80/21 58/79/21
f 18/67/22 25/25/22 56/28/22 64/76/22
f 11/58/23 12/61/23 59/81/23 57/80/23
f 1/48/24 3/47/24 49/70/24 50/69/24
f 26/52/25 9/59/25 58/79/25 53/78/25
f 12/61/26 10/62/26 60/82/26 59/81/26
f 3/47/27 4/49/27 51/71/27 49/70/27
f 17/64/28 19/63/28 61/74/28 62/73/28
f 4/49/29 2/50/29 52/72/29 51/71/29
f 19/63/30 20/66/30 63/75/30 61/74/30
f 28/53/31 26/52/31 53/78/31 54/77/31
f 20/66/32 18/67/32 64/76/32 63/75/32
f 27/26/33 28/53/33 54/77/33 55/27/33
f 2/50/34 17/64/34 62/73/34 52/72/34
