# Blender v2.90.1 OBJ File: 'bed.blend'
# www.blender.org
mtllib bed.mtl
o Cube.001
v -0.848840 0.461897 -2.103795
v -0.848840 0.952659 -2.103795
v -0.848840 0.461897 -2.241490
v -0.848840 0.952659 -2.241490
v -0.711145 0.461897 -2.103795
v -0.711145 0.952659 -2.103795
v -0.711145 0.461897 -2.241490
v -0.711145 0.952659 -2.241490
v 1.025594 1.080395 -2.449565
v 1.025594 0.847182 -2.449565
v 1.025594 1.080395 2.449565
v 1.025594 0.847182 2.449565
v -1.025594 1.080395 -2.449565
v -1.025594 0.847182 -2.449565
v -1.025594 1.080395 2.449565
v -1.025594 0.847182 2.449565
v 0.890879 0.461897 -2.103795
v 0.890879 0.952659 -2.103795
v 0.890879 0.461897 -2.241490
v 0.890879 0.952659 -2.241490
v 0.753184 0.461897 -2.103795
v 0.753184 0.952659 -2.103795
v 0.753184 0.461897 -2.241490
v 0.753184 0.952659 -2.241490
v -0.983555 1.080395 -2.449565
v -0.983555 0.847182 -2.449565
v -0.983555 1.080395 2.449565
v -0.983555 0.847182 2.449565
v 1.067633 1.080395 -2.449565
v 1.067633 0.847182 -2.449565
v 1.067633 1.080395 2.449565
v 1.067633 0.847182 2.449565
v -0.848840 0.461897 2.108595
v -0.848840 0.952659 2.108595
v -0.848840 0.461897 2.246289
v -0.848840 0.952659 2.246289
v -0.711145 0.461897 2.108595
v -0.711145 0.952659 2.108595
v -0.711145 0.461897 2.246289
v -0.711145 0.952659 2.246289
v 1.025594 1.080395 2.454365
v 1.025594 0.847182 2.454365
v 1.025594 1.080395 -2.444765
v 1.025594 0.847182 -2.444765
v -1.025594 1.080395 2.454365
v -1.025594 0.847182 2.454365
v -1.025594 1.080395 -2.444765
v -1.025594 0.847182 -2.444765
v 0.890879 0.461897 2.108595
v 0.890879 0.952659 2.108595
v 0.890879 0.461897 2.246289
v 0.890879 0.952659 2.246289
v 0.753184 0.461897 2.108595
v 0.753184 0.952659 2.108595
v 0.753184 0.461897 2.246289
v 0.753184 0.952659 2.246289
v -0.983555 1.080395 2.454365
v -0.983555 0.847182 2.454365
v -0.983555 1.080395 -2.444765
v -0.983555 0.847182 -2.444765
v 1.067633 1.080395 2.454365
v 1.067633 0.847182 2.454365
v 1.067633 1.080395 -2.444765
v 1.067633 0.847182 -2.444765
vt 0.375000 0.000000
vt 0.625000 0.000000
vt 0.625000 0.250000
vt 0.375000 0.250000
vt 0.625000 0.500000
vt 0.375000 0.500000
vt 0.625000 0.750000
vt 0.375000 0.750000
vt 0.625000 1.000000
vt 0.375000 1.000000
vt 0.125000 0.500000
vt 0.125000 0.750000
vt 0.875000 0.500000
vt 0.875000 0.750000
vt 0.625000 0.500000
vt 0.875000 0.500000
vt 0.875000 0.750000
vt 0.625000 0.750000
vt 0.375000 0.750000
vt 0.625000 1.000000
vt 0.375000 1.000000
vt 0.375000 0.000000
vt 0.625000 0.000000
vt 0.625000 0.250000
vt 0.375000 0.250000
vt 0.125000 0.500000
vt 0.375000 0.500000
vt 0.125000 0.750000
vt 0.375000 0.000000
vt 0.375000 0.250000
vt 0.625000 0.250000
vt 0.625000 0.000000
vt 0.375000 0.500000
vt 0.625000 0.500000
vt 0.375000 0.750000
vt 0.625000 0.750000
vt 0.375000 1.000000
vt 0.625000 1.000000
vt 0.125000 0.500000
vt 0.125000 0.750000
vt 0.875000 0.750000
vt 0.875000 0.500000
vt 0.625000 0.500000
vt 0.625000 0.750000
vt 0.875000 0.750000
vt 0.875000 0.500000
vt 0.375000 0.750000
vt 0.375000 1.000000
vt 0.625000 1.000000
vt 0.375000 0.000000
vt 0.375000 0.250000
vt 0.625000 0.250000
vt 0.625000 0.000000
vt 0.125000 0.500000
vt 0.125000 0.750000
vt 0.375000 0.500000
vt 0.375000 0.000000
vt 0.375000 0.250000
vt 0.625000 0.250000
vt 0.625000 0.000000
vt 0.375000 0.500000
vt 0.625000 0.500000
vt 0.375000 0.750000
vt 0.625000 0.750000
vt 0.375000 1.000000
vt 0.625000 1.000000
vt 0.125000 0.500000
vt 0.125000 0.750000
vt 0.875000 0.750000
vt 0.875000 0.500000
vt 0.625000 0.500000
vt 0.625000 0.750000
vt 0.875000 0.750000
vt 0.875000 0.500000
vt 0.375000 0.750000
vt 0.375000 1.000000
vt 0.625000 1.000000
vt 0.375000 0.000000
vt 0.375000 0.250000
vt 0.625000 0.250000
vt 0.625000 0.000000
vt 0.125000 0.500000
vt 0.125000 0.750000
vt 0.375000 0.500000
vt 0.375000 0.000000
vt 0.625000 0.000000
vt 0.625000 0.250000
vt 0.375000 0.250000
vt 0.625000 0.500000
vt 0.375000 0.500000
vt 0.625000 0.750000
vt 0.375000 0.750000
vt 0.625000 1.000000
vt 0.375000 1.000000
vt 0.125000 0.500000
vt 0.125000 0.750000
vt 0.875000 0.500000
vt 0.875000 0.750000
vt 0.625000 0.500000
vt 0.875000 0.500000
vt 0.875000 0.750000
vt 0.625000 0.750000
vt 0.375000 0.750000
vt 0.625000 1.000000
vt 0.375000 1.000000
vt 0.375000 0.000000
vt 0.625000 0.000000
vt 0.625000 0.250000
vt 0.375000 0.250000
vt 0.125000 0.500000
vt 0.375000 0.500000
vt 0.125000 0.750000
vn -1.0000 0.0000 0.0000
vn 0.0000 0.0000 -1.0000
vn 1.0000 0.0000 0.0000
vn 0.0000 0.0000 1.0000
vn 0.0000 -1.0000 0.0000
vn 0.0000 1.0000 0.0000
usemtl Material
s off
f 1/1/1 2/2/1 4/3/1 3/4/1
f 3/4/2 4/3/2 8/5/2 7/6/2
f 7/6/3 8/5/3 6/7/3 5/8/3
f 5/8/4 6/7/4 2/9/4 1/10/4
f 3/11/5 7/6/5 5/8/5 1/12/5
f 8/5/6 4/13/6 2/14/6 6/7/6
f 9/15/6 13/16/6 15/17/6 11/18/6
f 12/19/4 11/18/4 15/20/4 16/21/4
f 16/22/1 15/23/1 13/24/1 14/25/1
f 14/26/5 10/27/5 12/19/5 16/28/5
f 10/27/3 9/15/3 11/18/3 12/19/3
f 14/25/2 13/24/2 9/15/2 10/27/2
f 17/29/3 19/30/3 20/31/3 18/32/3
f 19/30/2 23/33/2 24/34/2 20/31/2
f 23/33/1 21/35/1 22/36/1 24/34/1
f 21/35/4 17/37/4 18/38/4 22/36/4
f 19/39/5 17/40/5 21/35/5 23/33/5
f 24/34/6 22/36/6 18/41/6 20/42/6
f 25/43/6 27/44/6 31/45/6 29/46/6
f 28/47/4 32/48/4 31/49/4 27/44/4
f 32/50/3 30/51/3 29/52/3 31/53/3
f 30/54/5 32/55/5 28/47/5 26/56/5
f 26/56/1 28/47/1 27/44/1 25/43/1
f 30/51/2 26/56/2 25/43/2 29/52/2
f 33/57/1 35/58/1 36/59/1 34/60/1
f 35/58/4 39/61/4 40/62/4 36/59/4
f 39/61/3 37/63/3 38/64/3 40/62/3
f 37/63/2 33/65/2 34/66/2 38/64/2
f 35/67/5 33/68/5 37/63/5 39/61/5
f 40/62/6 38/64/6 34/69/6 36/70/6
f 41/71/6 43/72/6 47/73/6 45/74/6
f 44/75/2 48/76/2 47/77/2 43/72/2
f 48/78/1 46/79/1 45/80/1 47/81/1
f 46/82/5 48/83/5 44/75/5 42/84/5
f 42/84/3 44/75/3 43/72/3 41/71/3
f 46/79/4 42/84/4 41/71/4 45/80/4
f 49/85/3 50/86/3 52/87/3 51/88/3
f 51/88/4 52/87/4 56/89/4 55/90/4
f 55/90/1 56/89/1 54/91/1 53/92/1
f 53/92/2 54/91/2 50/93/2 49/94/2
f 51/95/5 55/90/5 53/92/5 49/96/5
f 56/89/6 52/97/6 50/98/6 54/91/6
f 57/99/6 61/100/6 63/101/6 59/102/6
f 60/103/2 59/102/2 63/104/2 64/105/2
f 64/106/3 63/107/3 61/108/3 62/109/3
f 62/110/5 58/111/5 60/103/5 64/112/5
f 58/111/1 57/99/1 59/102/1 60/103/1
f 62/109/4 61/108/4 57/99/4 58/111/4
o Cube.002
v 1.000000 1.029848 -2.386951
v 0.900730 1.018988 -2.386951
v 0.986700 1.024418 -2.386951
v 0.950365 1.020443 -2.386951
v 0.900730 1.018988 1.629610
v 1.000000 1.029848 1.629610
v 0.950365 1.020443 1.629610
v 0.986700 1.024418 1.629610
v -0.900730 1.018988 -2.386951
v -1.000000 1.029848 -2.386951
v -0.950365 1.020443 -2.386951
v -0.986700 1.024418 -2.386951
v -1.000000 1.029848 1.629610
v -0.900730 1.018988 1.629610
v -0.986700 1.024418 1.629610
v -0.950365 1.020443 1.629610
v 1.000000 1.177966 1.629610
v 0.881219 1.237785 1.629610
v 0.978345 1.215638 1.629610
v 0.934562 1.235416 1.629610
v -0.881219 1.237785 1.629610
v -1.000000 1.177966 1.629610
v -0.934562 1.235416 1.629610
v -0.978345 1.215638 1.629610
v 0.868019 1.197913 -2.386951
v 0.881219 1.237785 -2.251180
v 0.874619 1.234087 -2.368761
v 0.879450 1.236794 -2.319066
v 1.000000 1.060125 -2.386951
v 1.000000 1.177966 -2.251180
v 1.000000 1.119046 -2.368761
v 1.000000 1.162179 -2.319066
v 0.877015 1.197514 -2.386951
v 0.934562 1.235416 -2.251180
v 0.905788 1.232703 -2.368761
v 0.926852 1.234689 -2.319066
v 0.911245 1.182052 -2.386951
v 0.978345 1.215638 -2.251180
v 0.944795 1.215083 -2.368761
v 0.969355 1.215489 -2.319066
v -1.000000 1.177966 -2.251180
v -1.000000 1.060125 -2.386951
v -1.000000 1.162179 -2.319066
v -1.000000 1.119046 -2.368761
v -0.868019 1.197913 -2.386951
v -0.881219 1.237785 -2.251180
v -0.874619 1.234087 -2.368761
v -0.879450 1.236794 -2.319066
v -0.911245 1.182052 -2.386951
v -0.978345 1.215638 -2.251180
v -0.944795 1.215083 -2.368761
v -0.969355 1.215489 -2.319066
v -0.877015 1.197514 -2.386951
v -0.934562 1.235416 -2.251180
v -0.905788 1.232703 -2.368761
v -0.926852 1.234689 -2.319066
vt 0.614898 0.507610
vt 0.614898 0.750902
vt 0.604796 0.750000
vt 0.604796 0.508451
vt 0.854796 0.750000
vt 0.854796 0.508451
vt 0.864898 0.508451
vt 0.864898 0.750000
vt 0.137409 0.500000
vt 0.362591 0.500000
vt 0.362591 0.750000
vt 0.137409 0.750000
vt 0.375000 0.262409
vt 0.376662 0.256204
vt 0.381204 0.251662
vt 0.387409 0.250000
vt 0.431846 0.250000
vt 0.612322 0.261880
vt 0.619238 0.268270
vt 0.619453 0.269642
vt 0.622374 0.482920
vt 0.622603 0.484676
vt 0.613370 0.490140
vt 0.431846 0.500000
vt 0.387409 0.500000
vt 0.381204 0.499446
vt 0.371418 0.497932
vt 0.375000 0.487591
vt 0.131204 0.750000
vt 0.131204 0.500000
vt 0.125000 0.750000
vt 0.125000 0.500000
vt 0.381204 0.250000
vt 0.381204 0.000000
vt 0.387409 0.000000
vt 0.371418 0.752068
vt 0.381204 0.750554
vt 0.387409 0.750000
vt 0.375000 0.762409
vt 0.630832 0.753367
vt 0.625000 0.770204
vt 0.625000 0.979796
vt 0.622293 0.989897
vt 0.614898 0.997293
vt 0.604796 1.000000
vt 0.387409 1.000000
vt 0.381204 0.998338
vt 0.376662 0.993796
vt 0.375000 0.987591
vt 0.645204 0.508451
vt 0.645204 0.750000
vt 0.614898 0.000000
vt 0.614898 0.241549
vt 0.604796 0.241549
vt 0.604796 0.000000
vt 0.518321 0.500377
vt 0.594261 0.504378
vt 0.625000 0.000000
vt 0.625000 0.241549
vt 0.594261 0.245775
vt 0.518321 0.249623
vt 0.630832 0.505311
vt 0.624267 0.482269
vt 0.626064 0.489797
vt 0.625179 0.480313
vt 0.630362 0.495275
vt 0.631992 0.501231
vt 0.644763 0.504127
vt 0.614275 0.494692
vt 0.630434 0.501027
vt 0.614920 0.503350
vt 0.620889 0.264457
vt 0.621961 0.269652
vt 0.622511 0.260917
vt 0.624917 0.269894
vt 0.855106 0.504225
vt 0.864083 0.504225
vt 0.613597 0.257308
vt 0.614929 0.252739
vt 0.622108 0.259918
vt 0.624748 0.245775
vt 0.614941 0.245775
vt 0.625000 0.270415
vt 0.625000 0.479585
vt 0.645415 0.504225
vt 0.854585 0.504225
vn 0.8670 0.4984 0.0000
vn -0.0444 0.9990 0.0000
vn 0.0000 -1.0000 0.0000
vn -0.0000 0.0000 -1.0000
vn -0.0293 -0.9996 0.0000
vn -0.1087 -0.9941 0.0000
vn -0.3780 -0.9258 0.0000
vn 0.0293 -0.9996 0.0000
vn 0.1087 -0.9941 0.0000
vn 0.3780 -0.9258 0.0000
vn -0.0000 0.0000 1.0000
vn 0.0000 1.0000 0.0000
vn -0.8670 0.4984 0.0000
vn 1.0000 0.0000 0.0000
vn -0.4117 0.9113 0.0000
vn -1.0000 0.0000 0.0000
vn 0.4117 0.9113 0.0000
vn 0.0198 0.4463 -0.8947
vn 0.0443 0.9973 -0.0586
vn 0.0444 0.9989 -0.0157
vn 0.1575 0.3488 -0.9239
vn 0.4028 0.8917 -0.2064
vn 0.4110 0.9099 -0.0564
vn 0.3502 0.2313 -0.9077
vn 0.7957 0.4574 -0.3970
vn 0.8612 0.4950 -0.1151
vn -0.0198 0.4463 -0.8947
vn -0.0443 0.9973 -0.0586
vn -0.0444 0.9989 -0.0157
vn -0.1575 0.3488 -0.9239
vn -0.4028 0.8917 -0.2064
vn -0.4110 0.9099 -0.0564
vn -0.3502 0.2313 -0.9077
vn -0.7957 0.4574 -0.3970
vn -0.8612 0.4950 -0.1151
vn 0.0000 0.4492 -0.8934
vn 0.0000 0.9985 -0.0544
vn 0.0000 0.9999 -0.0146
vn 0.0444 0.9990 0.0000
usemtl Material.001
s off
f 102/113/7 83/114/7 81/115/7 94/116/7
f 85/117/8 110/118/8 118/119/8 87/120/8
f 73/121/9 66/122/9 69/123/9 78/124/9
f 73/125/10 75/126/10 76/127/10 74/128/10 106/129/10 113/130/10 117/131/10 109/132/10 89/133/10 97/134/10 101/135/10 93/136/10 65/137/10 67/138/10 68/139/10 66/140/10
f 73/121/11 78/124/11 80/141/11 75/142/11
f 75/142/12 80/141/12 79/143/12 76/144/12
f 76/145/13 79/146/13 77/147/13 74/128/13
f 69/123/14 66/122/14 68/139/14 71/148/14
f 71/148/15 68/139/15 67/138/15 72/149/15
f 72/149/16 67/138/16 65/137/16 70/150/16
f 69/151/17 71/148/17 72/149/17 70/150/17 81/115/17 83/114/17 84/152/17 82/153/17 85/154/17 87/155/17 88/156/17 86/157/17 77/158/17 79/159/17 80/160/17 78/161/17
f 90/162/18 110/118/18 85/117/18 82/163/18
f 88/164/19 114/165/19 105/166/19 86/167/19
f 65/137/20 93/136/20 95/168/20 96/169/20 94/116/20 81/115/20 70/150/20
f 87/170/21 118/171/21 114/165/21 88/164/21
f 77/147/22 86/167/22 105/166/22 107/172/22 108/173/22 106/129/22 74/128/22
f 98/174/23 84/152/23 83/114/23 102/113/23
f 97/134/24 89/133/24 91/175/24 99/176/24
f 99/176/25 91/175/25 92/177/25 100/178/25
f 100/179/26 92/180/26 90/162/26 98/174/26
f 101/135/27 97/134/27 99/176/27 103/181/27
f 103/181/28 99/176/28 100/182/28 104/183/28
f 104/183/29 100/182/29 98/174/29 102/113/29
f 93/136/30 101/135/30 103/181/30 95/168/30
f 95/168/31 103/181/31 104/183/31 96/169/31
f 96/169/32 104/183/32 102/113/32 94/116/32
f 109/132/33 117/131/33 119/184/33 111/185/33
f 111/185/34 119/184/34 120/186/34 112/187/34
f 112/188/35 120/189/35 118/119/35 110/118/35
f 117/131/36 113/130/36 115/190/36 119/184/36
f 119/184/37 115/190/37 116/191/37 120/192/37
f 120/193/38 116/194/38 114/165/38 118/171/38
f 113/130/39 106/129/39 108/173/39 115/190/39
f 115/190/40 108/173/40 107/172/40 116/194/40
f 116/194/41 107/172/41 105/166/41 114/165/41
f 89/133/42 109/132/42 111/185/42 91/175/42
f 91/175/43 111/185/43 112/195/43 92/196/43
f 92/197/44 112/198/44 110/118/44 90/162/44
f 90/162/45 82/163/45 84/152/45 98/174/45
o Cube.003
v 1.059795 0.869662 2.450132
v 1.059795 0.869662 2.274267
v -1.023334 0.869662 2.450132
v -1.023334 0.869662 2.274267
v 1.059795 1.630363 2.450132
v 0.296413 1.932945 2.450132
v 0.836206 1.844321 2.450132
v 0.296413 1.932945 2.274267
v 1.059795 1.630363 2.274267
v 0.836206 1.844321 2.274267
v -0.259952 1.932945 2.450132
v -1.023334 1.630363 2.450132
v -0.799745 1.844321 2.450132
v -1.023334 1.630363 2.274267
v -0.259952 1.932945 2.274267
v -0.799745 1.844321 2.274267
vt 0.125000 0.571143
vt 0.300611 0.340279
vt 0.216615 0.500000
vt 0.283385 0.500000
vt 0.366056 0.506946
vt 0.375000 0.571143
vt 0.375000 0.750000
vt 0.125000 0.750000
vt 0.625000 0.750000
vt 0.625000 1.000000
vt 0.375000 1.000000
vt 0.375000 0.000000
vt 0.625000 0.000000
vt 0.625000 0.178857
vt 0.375000 0.178857
vt 0.625000 0.571143
vt 0.633944 0.506946
vt 0.716615 0.500000
vt 0.783385 0.500000
vt 0.699389 0.340279
vt 0.875000 0.571143
vt 0.875000 0.750000
vt 0.375000 0.408385
vt 0.625000 0.408385
vt 0.625000 0.341615
vt 0.375000 0.341615
vn 0.0000 -0.0000 -1.0000
vn 0.0000 -1.0000 0.0000
vn -1.0000 0.0000 0.0000
vn -0.0000 0.0000 1.0000
vn 1.0000 0.0000 0.0000
vn 0.6914 0.7225 0.0000
vn 0.1620 0.9868 0.0000
vn -0.1620 0.9868 0.0000
vn -0.6914 0.7225 0.0000
vn 0.0000 1.0000 0.0000
usemtl Material
s off
f 134/199/46 136/200/46 135/201/46 128/202/46 130/203/46 129/204/46 122/205/46 124/206/46
f 122/205/47 121/207/47 123/208/47 124/209/47
f 124/210/48 123/211/48 132/212/48 134/213/48
f 125/214/49 127/215/49 126/216/49 131/217/49 133/218/49 132/219/49 123/220/49 121/207/49
f 129/204/50 125/214/50 121/207/50 122/205/50
f 125/214/51 129/204/51 130/203/51 127/215/51
f 127/215/52 130/203/52 128/221/52 126/222/52
f 131/223/53 135/224/53 136/200/53 133/218/53
f 133/218/54 136/200/54 134/213/54 132/212/54
f 135/224/55 131/223/55 126/222/55 128/221/55
o Cube.004
v 0.958001 1.185247 -2.287509
v 0.958001 1.012079 -2.287509
v 0.958001 1.185247 2.287509
v 0.958001 1.012079 2.287509
v -0.958001 1.185247 -2.287509
v -0.958001 1.012079 -2.287509
v -0.958001 1.185247 2.287509
v -0.958001 1.012079 2.287509
vt 0.625000 0.500000
vt 0.875000 0.500000
vt 0.875000 0.750000
vt 0.625000 0.750000
vt 0.375000 0.750000
vt 0.625000 1.000000
vt 0.375000 1.000000
vt 0.375000 0.000000
vt 0.625000 0.000000
vt 0.625000 0.250000
vt 0.375000 0.250000
vt 0.125000 0.500000
vt 0.375000 0.500000
vt 0.125000 0.750000
vn 0.0000 1.0000 0.0000
vn 0.0000 0.0000 1.0000
vn -1.0000 0.0000 0.0000
vn 0.0000 -1.0000 0.0000
vn 1.0000 0.0000 0.0000
vn 0.0000 0.0000 -1.0000
usemtl Material.003
s off
f 137/225/56 141/226/56 143/227/56 139/228/56
f 140/229/57 139/228/57 143/230/57 144/231/57
f 144/232/58 143/233/58 141/234/58 142/235/58
f 142/236/59 138/237/59 140/229/59 144/238/59
f 138/237/60 137/225/60 139/228/60 140/229/60
f 142/235/61 141/234/61 137/225/61 138/237/61
o Cube.005
v -0.646335 1.168266 2.205647
v -0.646335 1.168266 1.675670
v 0.646335 1.168266 2.205647
v 0.646335 1.168266 1.675670
v -0.152220 1.288107 2.003067
v -0.646335 1.242299 2.205647
v -0.501612 1.274690 2.146313
v -0.152220 1.288107 1.878250
v -0.646335 1.242299 1.675670
v -0.501612 1.274690 1.735004
v 0.152220 1.288107 2.003067
v 0.646335 1.242299 2.205647
v 0.501612 1.274690 2.146313
v 0.152220 1.288107 1.878250
v 0.646335 1.242299 1.675670
v 0.501612 1.274690 1.735004
vt 0.720561 0.595561
vt 0.779439 0.595561
vt 0.779439 0.654439
vt 0.720561 0.654439
vt 0.375000 0.500000
vt 0.529439 0.500000
vt 0.529439 0.750000
vt 0.375000 0.750000
vt 0.375000 0.000000
vt 0.529439 0.000000
vt 0.529439 0.250000
vt 0.375000 0.250000
vt 0.125000 0.500000
vt 0.125000 0.750000
vt 0.875000 0.527989
vt 0.875000 0.722011
vt 0.625000 0.027989
vt 0.625000 0.222011
vt 0.652989 0.500000
vt 0.847011 0.500000
vt 0.625000 0.277989
vt 0.625000 0.472011
vt 0.625000 0.722011
vt 0.625000 0.527989
vt 0.847011 0.750000
vt 0.652989 0.750000
vt 0.625000 0.777989
vt 0.625000 0.972011
vt 0.529439 1.000000
vt 0.375000 1.000000
vn 0.0000 1.0000 0.0000
vn 1.0000 0.0000 0.0000
vn -1.0000 0.0000 0.0000
vn 0.0000 -1.0000 0.0000
vn 0.0000 0.0000 -1.0000
vn -0.0384 0.9993 0.0000
vn -0.2184 0.9759 0.0000
vn 0.0000 0.9956 -0.0933
vn 0.0000 0.8777 -0.4792
vn 0.0384 0.9993 0.0000
vn 0.2184 0.9759 0.0000
vn 0.0000 0.9956 0.0933
vn 0.0000 0.8777 0.4792
vn 0.0000 0.0000 1.0000
usemtl Material.004
s off
f 158/239/62 152/240/62 149/241/62 155/242/62
f 148/243/63 159/244/63 156/245/63 147/246/63
f 145/247/64 150/248/64 153/249/64 146/250/64
f 146/251/65 148/243/65 147/246/65 145/252/65
f 146/250/66 153/249/66 159/244/66 148/243/66
f 149/241/67 152/240/67 154/253/67 151/254/67
f 151/255/68 154/256/68 153/249/68 150/248/68
f 152/240/69 158/239/69 160/257/69 154/258/69
f 154/259/70 160/260/70 159/244/70 153/249/70
f 158/239/71 155/242/71 157/261/71 160/262/71
f 160/262/72 157/261/72 156/245/72 159/244/72
f 155/242/73 149/241/73 151/263/73 157/264/73
f 157/265/74 151/266/74 150/267/74 156/245/74
f 147/246/75 156/245/75 150/267/75 145/268/75
