# Blender v2.90.1 OBJ File: 'shirt.blend'
# www.blender.org
mtllib shirt.mtl
o Plane
v -0.070536 0.020024 0.070536
v 0.070536 0.020024 0.070536
v -0.070536 0.020024 -0.076173
v 0.070536 0.020024 -0.076173
v -0.070536 0.020024 -0.200536
v 0.070536 0.020024 -0.200536
v -0.070536 0.020024 0.200536
v 0.070536 0.020024 0.200536
v -0.200536 0.000000 0.070536
v -0.200536 0.000000 -0.137238
v 0.200536 0.000000 0.070536
v 0.200536 0.002070 -0.137238
v -0.200536 0.000000 0.200536
v 0.200536 0.000000 0.200536
v -0.023512 0.010977 0.070536
v 0.023512 0.010977 0.070536
v 0.023512 0.010977 -0.070536
v -0.023512 0.010977 -0.070536
v 0.023512 0.010977 -0.140913
v -0.023512 0.010977 -0.140913
v -0.023512 0.010977 0.200536
v 0.023512 0.010977 0.200536
v -0.070536 0.020024 -0.002819
v 0.070536 0.020024 -0.002819
v -0.200536 0.004357 -0.001754
v 0.200536 0.006427 -0.001754
v -0.023512 0.010977 0.000000
v 0.023512 0.010977 0.000000
v 0.167505 0.007204 0.040158
v 0.167505 0.007204 0.175642
v -0.164561 0.007204 0.040158
v -0.164561 0.007204 0.175642
v -0.071079 0.027912 -0.005847
v -0.071079 0.027912 0.129637
v 0.070343 0.021250 0.131845
v 0.070343 0.021250 -0.003639
v -0.070551 -0.016874 -0.002819
v -0.070551 -0.016874 0.070536
v 0.023496 -0.016898 0.070536
v 0.070520 -0.016874 0.070536
v 0.070520 -0.016874 -0.002819
v 0.070520 -0.016874 -0.076173
v -0.023528 -0.016898 -0.070536
v -0.070551 -0.016874 -0.076173
v -0.023528 -0.016898 -0.140913
v -0.070551 -0.016874 -0.200536
v 0.070520 -0.016874 -0.200536
v 0.023496 -0.016898 0.200536
v 0.070520 -0.016874 0.200536
v -0.070551 -0.016874 0.200536
v -0.200551 -0.016898 -0.001754
v -0.200551 -0.016898 0.070536
v -0.200551 -0.016898 -0.137238
v 0.200520 -0.016898 -0.001754
v 0.200520 -0.016898 -0.137238
v 0.200520 -0.016898 0.070536
v -0.200551 -0.016898 0.200536
v 0.200520 -0.016898 0.200536
v -0.023528 -0.016898 0.070536
v 0.023496 -0.016898 -0.070536
v 0.023496 -0.016898 -0.140913
v -0.023528 -0.016898 0.200536
v -0.023528 -0.016898 -0.000000
v 0.023496 -0.016898 -0.000000
v 0.167490 -0.009694 0.040158
v 0.167490 -0.009694 0.175642
v 0.070327 0.004352 0.131845
v 0.070327 0.004352 -0.003639
v -0.164577 -0.009694 0.175642
v -0.164577 -0.009694 0.040158
v -0.071094 0.005627 -0.005847
v -0.071094 0.005627 0.129637
v -0.065097 0.025596 0.065046
v -0.065097 0.025596 -0.070438
v -0.065112 0.008698 0.065046
v -0.065112 0.008698 -0.070438
v 0.064729 0.023657 -0.071542
v 0.064729 0.023657 0.063942
v 0.064713 0.008079 -0.071542
v 0.064713 0.008079 0.063942
v -0.135536 0.010012 -0.192438
v -0.135551 -0.006886 -0.192438
v 0.135536 0.011047 -0.189396
v 0.135520 -0.006886 -0.189396
vt 0.221652 0.198408
vt 0.143773 0.198440
vt 0.137524 0.145575
vt 0.218517 0.145534
vt 0.066086 0.198476
vt 0.000245 0.145670
vt 0.299554 0.250313
vt 0.443091 0.250294
vt 0.443102 0.303152
vt 0.299566 0.303192
vt 0.218568 0.303204
vt 0.219759 0.447752
vt 0.070155 0.448407
vt 0.137582 0.303223
vt 0.219584 0.001236
vt 0.299669 0.000245
vt 0.299539 0.145491
vt 0.443171 0.448327
vt 0.299686 0.448411
vt 0.443171 0.000323
vt 0.443091 0.145517
vt 0.443088 0.198382
vt 0.299545 0.198383
vt 0.000305 0.303233
vt 0.066106 0.250377
vt 0.143792 0.250354
vt 0.221668 0.250331
vt 0.009241 0.375817
vt 0.012483 0.073242
vt 0.069983 0.000773
vt 0.000245 0.567537
vt 0.003334 0.448900
vt 0.138296 0.513374
vt 0.135206 0.632010
vt 0.628177 0.633563
vt 0.628057 0.511831
vt 0.767934 0.444454
vt 0.768054 0.566186
vt 0.627923 0.806513
vt 0.767800 0.739136
vt 0.002301 0.734311
vt 0.137263 0.798784
vt 0.665239 0.248077
vt 0.662146 0.300037
vt 0.581039 0.300096
vt 0.587285 0.248085
vt 0.443660 0.299727
vt 0.509556 0.248033
vt 0.743147 0.196140
vt 0.743161 0.144223
vt 0.886655 0.144264
vt 0.886644 0.196157
vt 0.662150 0.144164
vt 0.581048 0.144101
vt 0.514179 0.000245
vt 0.663541 0.000657
vt 0.743160 0.299982
vt 0.743289 0.443465
vt 0.663532 0.443546
vt 0.743300 0.000740
vt 0.886731 0.000835
vt 0.886731 0.443384
vt 0.886649 0.299942
vt 0.743145 0.248063
vt 0.886642 0.248050
vt 0.587285 0.196108
vt 0.509568 0.196144
vt 0.443684 0.144441
vt 0.665240 0.196123
vt 0.452375 0.071920
vt 0.514171 0.443965
vt 0.455691 0.372263
vt 0.928207 0.547119
vt 0.790822 0.611595
vt 0.808549 0.510420
vt 0.880493 0.466751
vt 0.603714 0.635382
vt 0.467170 0.576039
vt 0.507508 0.498248
vt 0.575876 0.536436
vt 0.610298 0.807821
vt 0.461136 0.742449
vt 0.940498 0.717627
vt 0.788513 0.788745
vt 0.625096 0.980500
vt 0.604150 0.983191
vt 0.210812 0.696261
vt 0.220800 0.748174
vt 0.180066 0.748156
vt 0.180039 0.696243
vt 0.444369 0.571983
vt 0.499653 0.482329
vt 0.590813 0.525725
vt 0.198694 0.448918
vt 0.220800 0.592434
vt 0.180066 0.592417
vt 0.180039 0.448900
vt 0.179550 0.613710
vt 0.169567 0.697541
vt 0.138794 0.697553
vt 0.138816 0.613723
vt 0.228385 0.528706
vt 0.221289 0.448900
vt 0.247040 0.448900
vt 0.247040 0.528706
vt 0.443770 0.741268
vt 0.252340 0.592417
vt 0.252340 0.448900
vt 0.270995 0.448900
vt 0.270995 0.592417
vt 0.794846 0.503295
vt 0.887055 0.444454
vt 0.247529 0.672223
vt 0.270995 0.672223
vt 0.169558 0.749454
vt 0.138785 0.749466
vt 0.198694 0.891690
vt 0.180039 0.891673
vt 0.960127 0.715726
vt 0.960127 0.895312
vt 0.936065 0.898794
vt 0.210812 0.644348
vt 0.180039 0.644330
vt 0.179550 0.833283
vt 0.138816 0.833296
vt 0.946166 0.543004
vt 0.228385 0.672223
vt 0.247040 0.672223
vt 0.168489 0.905595
vt 0.157446 0.999740
vt 0.138791 0.999755
vt 0.149834 0.905611
vt 0.772740 0.611200
vt 0.768543 0.787672
vt 0.169648 0.540905
vt 0.149850 0.540920
vt 0.779312 0.969023
vt 0.798698 0.971200
vt 0.003604 0.902665
vt 0.138296 0.967877
vt 0.443660 0.913942
vt 0.469304 0.916978
vt 0.628396 0.981155
vt 0.768054 0.913141
vt 0.421055 0.479951
vt 0.421055 0.498606
vt 0.271484 0.498606
vt 0.271484 0.475140
vt 0.271484 0.474651
vt 0.271484 0.448900
vt 0.421055 0.448900
vt 0.421055 0.469841
vt 0.159731 0.448900
vt 0.138790 0.448916
vn 0.1889 -0.9820 0.0000
vn -0.1889 -0.9820 0.0000
vn 0.1313 -0.9911 0.0207
vn -0.1279 -0.9908 -0.0437
vn 0.1522 -0.9883 0.0000
vn -0.1522 -0.9883 0.0000
vn 0.0000 -1.0000 0.0000
vn -0.1368 -0.9906 -0.0000
vn -0.1157 -0.9931 0.0207
vn 0.1358 -0.9903 -0.0296
vn 0.1431 0.9897 0.0000
vn -0.2163 0.9763 0.0000
vn 0.0313 0.9995 0.0000
vn 0.0321 0.9995 0.0000
vn -0.0005 1.0000 0.0000
vn 0.0005 1.0000 0.0000
vn -0.0002 1.0000 0.0000
vn 0.0002 1.0000 0.0000
vn 0.0000 1.0000 0.0000
vn 0.0326 0.9972 0.0674
vn -0.0333 0.9971 0.0688
vn -0.1431 -0.9897 0.0000
vn 0.1617 -0.9868 0.0000
vn 0.0180 -0.9998 0.0000
vn -0.0321 -0.9995 0.0000
vn -0.4354 0.0004 -0.9002
vn -0.0000 0.0000 -1.0000
vn 0.4416 -0.0004 0.8972
vn -0.4416 0.0004 -0.8972
vn 0.7852 -0.0004 0.6192
vn -1.0000 0.0008 0.0000
vn 0.4355 -0.0004 0.9002
vn 1.0000 -0.0009 0.0000
vn 1.0000 -0.0008 -0.0000
vn 0.0000 0.0000 1.0000
vn -0.4424 0.0004 0.8968
vn -0.7852 0.0004 0.6193
vn -0.4109 0.0004 0.9117
vn -1.0000 0.0009 0.0000
vn 0.6474 -0.0006 0.7622
vn 0.4109 -0.0004 -0.9117
vn 0.4423 -0.0004 -0.8969
vn -0.1689 0.0001 0.9856
vn 0.4424 -0.0004 -0.8968
vn -0.4423 0.0004 0.8969
vn 0.1857 -0.9826 0.0000
vn -0.1627 0.9865 -0.0159
vn 0.4354 -0.0004 0.9002
vn -0.4355 0.0004 -0.9002
vn -0.1809 -0.9835 -0.0000
vn 0.1339 0.9909 -0.0159
vn 1.0000 -0.0007 0.0000
vn 0.1236 -0.0001 0.9923
vn -0.6258 0.0005 0.7800
usemtl Material.001
s off
f 28/1/1 17/2/1 4/3/1 24/4/1
f 17/2/1 19/5/1 6/6/1 4/3/1
f 15/7/2 21/8/2 7/9/2 1/10/2
f 23/11/3 25/12/3 10/13/3 3/14/3
f 24/4/4 26/15/4 11/16/4 2/17/4
f 7/9/5 13/18/5 9/19/5 1/10/5
f 14/20/6 8/21/6 2/17/6 11/16/6
f 2/17/1 8/21/1 22/22/1 16/23/1
f 16/23/7 22/22/7 21/8/7 15/7/7
f 3/14/2 5/24/2 20/25/2 18/26/2
f 18/26/7 20/25/7 19/5/7 17/2/7
f 23/11/2 3/14/2 18/26/2 27/27/2
f 27/27/7 18/26/7 17/2/7 28/1/7
f 3/14/5 10/13/5 81/28/5 5/24/5
f 4/3/8 6/6/8 83/29/8 12/30/8
f 15/7/7 27/27/7 28/1/7 16/23/7
f 1/10/2 23/11/2 27/27/2 15/7/2
f 4/3/9 12/30/9 26/15/9 24/4/9
f 1/10/10 9/19/10 25/12/10 23/11/10
f 16/23/1 28/1/1 24/4/1 2/17/1
f 35/31/11 30/32/11 29/33/11 36/34/11
f 33/35/12 31/36/12 32/37/12 34/38/12
f 77/39/13 33/35/13 34/38/13 78/40/13
f 73/41/14 35/31/14 36/34/14 74/42/14
f 64/43/15 41/44/15 42/45/15 60/46/15
f 60/46/15 42/45/15 47/47/15 61/48/15
f 59/49/16 38/50/16 50/51/16 62/52/16
f 37/53/17 44/54/17 53/55/17 51/56/17
f 41/44/18 40/57/18 56/58/18 54/59/18
f 50/51/17 38/50/17 52/60/17 57/61/17
f 58/62/18 56/58/18 40/57/18 49/63/18
f 40/57/15 39/64/15 48/65/15 49/63/15
f 39/64/19 59/49/19 62/52/19 48/65/19
f 44/54/16 43/66/16 45/67/16 46/68/16
f 43/66/19 60/46/19 61/48/19 45/67/19
f 37/53/16 63/69/16 43/66/16 44/54/16
f 63/69/19 64/43/19 60/46/19 43/66/19
f 44/54/20 46/68/20 82/70/20 53/55/20
f 42/45/21 55/71/21 84/72/21 47/47/21
f 59/49/19 39/64/19 64/43/19 63/69/19
f 38/50/16 59/49/16 63/69/16 37/53/16
f 42/45/18 41/44/18 54/59/18 55/71/18
f 38/50/17 37/53/17 51/56/17 52/60/17
f 39/64/15 40/57/15 41/44/15 64/43/15
f 67/73/22 68/74/22 65/75/22 66/76/22
f 71/77/23 72/78/23 69/79/23 70/80/23
f 79/81/24 80/82/24 72/78/24 71/77/24
f 75/83/25 76/84/25 68/74/25 67/73/25
f 77/39/26 12/85/26 55/86/26 79/81/26
f 22/87/27 8/88/27 49/89/27 48/90/27
f 34/91/28 32/92/28 69/79/28 72/78/28
f 31/93/29 33/35/29 71/77/29 70/80/29
f 13/94/27 7/95/27 50/96/27 57/97/27
f 6/98/30 19/99/30 61/100/30 47/101/30
f 11/102/31 26/103/31 54/104/31 56/105/31
f 78/106/32 34/91/32 72/78/32 80/82/32
f 9/107/33 13/108/33 57/109/33 52/110/33
f 29/111/33 30/112/33 66/76/33 65/75/33
f 25/113/34 9/107/34 52/110/34 51/114/34
f 19/99/35 20/115/35 45/116/35 61/100/35
f 8/88/27 14/117/27 58/118/27 49/89/27
f 73/119/36 25/120/36 51/121/36 75/83/36
f 7/95/27 21/122/27 62/123/27 50/96/27
f 20/115/37 5/124/37 46/125/37 45/116/37
f 30/112/38 35/126/38 67/73/38 66/76/38
f 14/127/39 11/102/39 56/105/39 58/128/39
f 81/129/40 10/130/40 53/131/40 82/132/40
f 36/133/41 29/111/41 65/75/41 68/74/41
f 21/122/27 22/87/27 48/90/27 62/123/27
f 74/134/42 36/133/42 68/74/42 76/84/42
f 83/135/43 6/98/43 47/101/43 84/136/43
f 32/92/39 31/93/39 70/80/39 69/79/39
f 10/137/44 74/134/44 76/84/44 53/138/44
f 35/126/45 73/119/45 75/83/45 67/73/45
f 51/121/46 53/138/46 76/84/46 75/83/46
f 25/139/47 73/41/47 74/42/47 10/140/47
f 26/141/48 78/106/48 80/82/48 54/142/48
f 33/35/49 77/39/49 79/81/49 71/77/49
f 55/86/50 54/142/50 80/82/50 79/81/50
f 12/143/51 77/39/51 78/40/51 26/144/51
f 10/145/31 53/146/31 51/147/31 25/148/31
f 26/149/52 54/150/52 55/151/52 12/152/52
f 5/124/53 81/129/53 82/132/53 46/125/53
f 12/153/54 83/135/54 84/136/54 55/154/54
